<svg xmlns="http://www.w3.org/2000/svg" enable-background="new 0 0 550 550" viewBox="0 0 550 550"><path d="M254.557,530.896c-2.581,0-4.965-1.679-5.745-4.277l-59.342-197.793c-0.952-3.175,0.849-6.52,4.023-7.472
				c3.172-0.951,6.519,0.849,7.471,4.022l59.342,197.793c0.952,3.175-0.849,6.52-4.023,7.472
				C255.709,530.813,255.128,530.896,254.557,530.896z"/><path d="M142.466,530.895c-1.05,0-2.115-0.276-3.081-0.856c-2.841-1.704-3.763-5.39-2.058-8.231l36.616-61.027l-34.799-23.199
				c-2.518-1.679-3.392-4.969-2.039-7.676l52.746-105.491c1.482-2.964,5.086-4.166,8.05-2.683c2.964,1.481,4.166,5.086,2.684,8.05
				l-50.377,100.753l35.152,23.436c2.665,1.776,3.465,5.333,1.817,8.079l-39.56,65.933
				C146.492,529.855,144.505,530.895,142.466,530.895z"/><path d="M484.095 530.894H25.106c-3.313 0-6-2.687-6-6v-78.242c0-26.777 11.513-52.345 31.588-70.145 13.271-11.78 29.569-19.553 47.13-22.473l44.729-7.415c19.177-3.19 36.656-13.085 49.213-27.862 5.293-6.221 9.606-13.16 12.821-20.63 1.31-3.044 4.838-4.447 7.883-3.14 3.043 1.311 4.449 4.84 3.139 7.884-3.688 8.569-8.634 16.53-14.701 23.66-14.389 16.932-34.416 28.271-56.389 31.926l-44.729 7.415c-15.327 2.549-29.551 9.33-41.132 19.611-17.511 15.526-27.552 37.82-27.552 61.168v72.242h452.988c3.313 0 6 2.687 6 6S487.408 530.894 484.095 530.894zM254.601 258.617c-11.06 0-21.412-4.85-29.15-13.656-2.187-2.489-1.942-6.28.547-8.468 2.488-2.187 6.281-1.942 8.468.547 5.426 6.176 12.577 9.577 20.135 9.577s14.708-3.401 20.134-9.577c2.189-2.491 5.981-2.732 8.467-.547 2.489 2.188 2.734 5.979.547 8.468C276.012 253.768 265.66 258.617 254.601 258.617z"/><path d="M254.601,316.699c-56.738,0-102.897-46.16-102.897-102.897v-61.199c0-22.993,18.706-41.699,41.699-41.699
				c16.376,0,29.699-13.323,29.699-29.699c0-3.313,2.687-6,6-6s6,2.687,6,6c0,16.376,13.323,29.699,29.699,29.699h50.999
				c22.993,0,41.699,18.706,41.699,41.699v61.199C357.498,270.54,311.339,316.699,254.601,316.699z M229.101,102.736
				c-7.312,12.078-20.579,20.168-35.699,20.168c-16.376,0-29.699,13.323-29.699,29.699v61.199c0,50.121,40.776,90.897,90.897,90.897
				s90.897-40.776,90.897-90.897v-61.199c0-16.376-13.323-29.699-29.699-29.699H264.8
				C249.68,122.904,236.413,114.814,229.101,102.736z"/><path d="M54.673,386.996c-1.404,0-2.813-0.489-3.952-1.487c-20.092-17.605-31.615-43.014-31.615-69.71
				c0-33.061,17.821-63.861,46.508-80.381c21.644-12.463,35.09-35.335,35.09-59.691v-1.173c0-41.31,15.965-80.256,44.955-109.665
				c29.102-29.522,67.79-45.782,108.933-45.782c0.007,0,0.012,0,0.019,0c41.099,0,79.742,16.008,108.81,45.076
				c14.142,14.141,25.235,30.6,32.976,48.918c8.029,18.98,12.101,39.135,12.101,59.902c0,25.803,13.692,49.865,35.733,62.796
				c26.822,15.72,43.908,43.59,45.701,74.554c0.191,3.308-2.335,6.146-5.644,6.337c-3.29,0.195-6.145-2.335-6.337-5.644
				c-1.561-26.948-16.436-51.208-39.791-64.896c-25.699-15.078-41.663-43.106-41.663-73.148c0-19.152-3.753-37.734-11.153-55.23
				c-7.136-16.889-17.366-32.063-30.407-45.105c-26.802-26.801-62.432-41.561-100.326-41.561c-0.004,0-0.014,0-0.018,0
				c-37.909,0-73.557,14.988-100.388,42.206c-26.762,27.149-41.501,63.104-41.501,101.241v1.173
				c0,28.635-15.749,55.492-41.102,70.09c-24.979,14.385-40.496,41.201-40.496,69.982c0,23.239,10.032,45.358,27.523,60.685
				c2.492,2.184,2.743,5.975,0.559,8.467C58.002,386.304,56.342,386.996,54.673,386.996z"/><path d="M218.901 188.919c-3.313 0-6-2.687-6-6v-11.616c0-3.313 2.687-6 6-6s6 2.687 6 6v11.616C224.901 186.232 222.215 188.919 218.901 188.919zM290.3 188.919c-3.313 0-6-2.687-6-6v-11.616c0-3.313 2.687-6 6-6s6 2.687 6 6v11.616C296.3 186.232 293.613 188.919 290.3 188.919zM499.838 490.095H279.597c-17.124 0-31.056-13.932-31.056-31.056V336.258c0-17.401 14.157-31.559 31.559-31.559h219.235c17.401 0 31.559 14.157 31.559 31.559v122.781C530.894 476.163 516.962 490.095 499.838 490.095zM280.1 316.699c-10.785 0-19.559 8.774-19.559 19.559v122.781c0 10.507 8.548 19.056 19.056 19.056h220.241c10.507 0 19.056-8.549 19.056-19.056V336.258c0-10.784-8.774-19.559-19.559-19.559H280.1z"/><path d="M524.894,530.894H254.541c-3.313,0-6-2.687-6-6v-40.799c0-3.313,2.687-6,6-6h270.353c3.313,0,6,2.687,6,6v40.799
				C530.894,528.207,528.207,530.894,524.894,530.894z M260.541,518.894h258.353v-28.799H260.541V518.894z"/><path d="M392.297,490.095c-2.272,0-4.351-1.284-5.366-3.316l-16.166-32.332c-3.185-6.368-4.867-13.497-4.867-20.617v-123.13
				c0-3.313,2.687-6,6-6h40.799c3.313,0,6,2.687,6,6v123.13c0,7.12-1.683,14.249-4.867,20.617l-16.166,32.332
				C396.647,488.811,394.569,490.095,392.297,490.095z M377.897,316.699v117.13c0,5.267,1.245,10.54,3.6,15.25l10.8,21.6l10.8-21.6
				c2.354-4.71,3.6-9.983,3.6-15.25v-117.13H377.897z"/><path d="M412.696,367.698h-40.799c-3.313,0-6-2.687-6-6s2.687-6,6-6h40.799c3.313,0,6,2.687,6,6S416.01,367.698,412.696,367.698z
				"/></svg>