<svg xmlns="http://www.w3.org/2000/svg" enable-background="new 0 0 66 66" viewBox="0 0 66 66"><path fill="none" stroke="#000" stroke-linecap="round" stroke-linejoin="round" stroke-miterlimit="10" stroke-width="1.5" d="M9.16 38.74l2.47 10.34c.13.5.59.85 1.11.85h2.44c1.23 0 2.05-1.27 1.53-2.37-1.4-2.99-1.83-5.2-1.5-8.82M16.51 38.74h-7.6c-1.79 0-3.24-1.45-3.24-3.24v-4.36c0-1.79 1.45-3.24 3.24-3.24h7.6V38.74zM4.37 30.85c-1.37 0-2.47 1.11-2.47 2.47 0 1.37 1.11 2.47 2.47 2.47h1.29v-4.95H4.37z"/><polygon fill="none" stroke="#000" stroke-linecap="round" stroke-linejoin="round" stroke-miterlimit="10" stroke-width="1.5" points="27.72 44.22 16.51 38.74 16.51 27.9 27.72 22.43"/><polyline fill="none" stroke="#000" stroke-linecap="round" stroke-linejoin="round" stroke-miterlimit="10" stroke-width="1.5" points="20.2 29.44 24.72 27.23 24.72 32.04"/><line x1="24.72" x2="24.72" y1="36.72" y2="38.64" fill="none" stroke="#000" stroke-linecap="round" stroke-linejoin="round" stroke-miterlimit="10" stroke-width="1.5"/><path fill="none" stroke="#000" stroke-linecap="round" stroke-linejoin="round" stroke-miterlimit="10" stroke-width="1.5" d="M30.31 46.44h-1.3c-.71 0-1.29-.58-1.29-1.29V21.5c0-.71.58-1.29 1.29-1.29h1.3c.72 0 1.29.58 1.29 1.29v23.65C31.61 45.86 31.03 46.44 30.31 46.44zM31.61 29.14c2.31 0 4.18 1.87 4.18 4.18 0 2.31-1.87 4.18-4.18 4.18V29.14zM59.9 41.15c-3.52 2.54-8.42 2.43-11.85-.22-1.83-1.41-3.01-3.29-3.56-5.3-.08-.3-.26-.57-.52-.75l-1.9-1.31c-.75-.52-.75-1.63 0-2.15l2.36-1.63c.21-.15.37-.35.46-.59.72-1.75 1.93-3.33 3.7-4.52 3.44-2.3 8.07-2.22 11.4.23C65.5 28.98 65.47 37.13 59.9 41.15zM54.77 13.41c-.69 4.28-4.23 7.67-8.53 8.23-2.3.3-4.46-.2-6.27-1.24-.27-.16-.59-.22-.9-.17l-2.27.42c-.9.17-1.69-.62-1.52-1.52l.52-2.82c.05-.25.01-.51-.09-.74-.73-1.74-.99-3.72-.58-5.81.8-4.06 4.14-7.28 8.23-7.9C50.13.84 55.87 6.62 54.77 13.41z"/><path fill="none" stroke="#000" stroke-linecap="round" stroke-linejoin="round" stroke-miterlimit="10" stroke-width="1.5" d="M44.92 16.84c0 0 5.67-2.93 5.67-6.71 0-1.93-1.56-3.49-3.49-3.49-.96 0-1.59.61-2.18 1.1-.6-.48-1.23-1.1-2.18-1.1-1.93 0-3.49 1.56-3.49 3.49C39.24 13.81 44.92 16.84 44.92 16.84zM42.37 64.11c-4.26-.69-7.64-4.22-8.2-8.5-.3-2.31.21-4.48 1.26-6.29.14-.24.2-.52.15-.79l-.47-2.54c-.15-.79.55-1.48 1.34-1.34l3.07.56c.22.04.45.01.65-.08 1.74-.74 3.73-1.01 5.83-.6 4.04.8 7.25 4.12 7.87 8.2C54.89 59.49 49.13 65.21 42.37 64.11z"/><path fill="none" stroke="#000" stroke-linecap="round" stroke-linejoin="round" stroke-miterlimit="10" stroke-width="1.5" d="M42.17 52.81l2.02-1.21c.43-.26.7-.73.7-1.23V47.7l0 0c1.37 0 2.48 1.11 2.48 2.48v1.4l1.08 0c.95 0 1.74.71 1.86 1.65.25 2.1.28 5.49-2.1 5.89l-3.94.04c-.28 0-1.45-.38-2.11-.98M39.26 58.75v-6.83c0-.53.43-.96.96-.96h.97c.53 0 .96.43.96.96v6.83c0 .53-.43.96-.96.96h-.97C39.69 59.71 39.26 59.28 39.26 58.75zM48.3 35.76v-5.52c0-.5.4-.9.9-.9h9.83c.5 0 .9.4.9.9v5.52c0 .5-.4.9-.9.9H49.2C48.7 36.66 48.3 36.26 48.3 35.76z"/><polyline fill="none" stroke="#000" stroke-linecap="round" stroke-linejoin="round" stroke-miterlimit="10" stroke-width="1.5" points="59.47 36.55 59.46 36.55 55 33"/><polyline fill="none" stroke="#000" stroke-linecap="round" stroke-linejoin="round" stroke-miterlimit="10" stroke-width="1.5" points="53.24 33 48.78 36.55 48.77 36.55"/><polyline fill="none" stroke="#000" stroke-linecap="round" stroke-linejoin="round" stroke-miterlimit="10" stroke-width="1.5" points="59.47 29.46 54.12 33.7 48.77 29.46"/></svg>